<svg width="39" height="50" viewBox="0 0 39 50" fill="none" xmlns="http://www.w3.org/2000/svg">
<g filter="url(#filter0_f_10438_7843)">
<rect x="11.5894" y="32.4105" width="15.5538" height="5.98225" rx="2.99112" fill="#B3B3B3" fill-opacity="0.8"/>
</g>
<g filter="url(#filter1_d_10438_7843)">
<path fill-rule="evenodd" clip-rule="evenodd" d="M19.5 32.4105C20.6668 32.4105 26.2234 25.4324 27.5935 23.2097C29.6997 19.7928 31 17.7713 31 13.9993C31 7.64799 25.8513 2.49927 19.5 2.49927C13.1487 2.49927 8 7.64799 8 13.9993C8 17.791 9.20488 19.7989 11.304 23.2097C12.7671 25.5869 18.3332 32.4105 19.5 32.4105Z" fill="#D00D0D"/>
<path d="M19.5 33.4105C19.7971 33.4105 20.0496 33.3075 20.2091 33.2291C20.3856 33.1424 20.5578 33.0301 20.7177 32.9129C21.0384 32.6779 21.3947 32.3599 21.7624 32.0014C22.5022 31.2798 23.3727 30.3103 24.2348 29.2885C25.952 27.2532 27.7209 24.9087 28.4448 23.7344C28.504 23.6383 28.5628 23.5431 28.621 23.4487C30.6232 20.2037 32 17.9724 32 13.9993C32 7.09571 26.4036 1.49927 19.5 1.49927C12.5964 1.49927 7 7.09571 7 13.9993C7 18.0954 8.3478 20.3142 10.4524 23.7338C11.2252 24.9895 13.0226 27.3365 14.7544 29.3531C15.6242 30.3658 16.4993 31.3209 17.2422 32.0304C17.6114 32.3829 17.9687 32.6949 18.2902 32.9254C18.4505 33.0403 18.6226 33.1501 18.7986 33.2346C18.9582 33.3113 19.2078 33.4105 19.5 33.4105Z" stroke="white" stroke-width="2"/>
</g>
<path fill-rule="evenodd" clip-rule="evenodd" d="M19.5 19.7493C22.6756 19.7493 25.25 17.1749 25.25 13.9993C25.25 10.8236 22.6756 8.24927 19.5 8.24927C16.3243 8.24927 13.75 10.8236 13.75 13.9993C13.75 17.1749 16.3243 19.7493 19.5 19.7493Z" fill="white"/>
<defs>
<filter id="filter0_f_10438_7843" x="0.716228" y="21.5374" width="37.3001" height="27.7286" filterUnits="userSpaceOnUse" color-interpolation-filters="sRGB">
<feFlood flood-opacity="0" result="BackgroundImageFix"/>
<feBlend mode="normal" in="SourceGraphic" in2="BackgroundImageFix" result="shape"/>
<feGaussianBlur stdDeviation="5.43656" result="effect1_foregroundBlur_10438_7843"/>
</filter>
<filter id="filter1_d_10438_7843" x="1" y="0.499268" width="37" height="43.9113" filterUnits="userSpaceOnUse" color-interpolation-filters="sRGB">
<feFlood flood-opacity="0" result="BackgroundImageFix"/>
<feColorMatrix in="SourceAlpha" type="matrix" values="0 0 0 0 0 0 0 0 0 0 0 0 0 0 0 0 0 0 127 0" result="hardAlpha"/>
<feOffset dy="5"/>
<feGaussianBlur stdDeviation="2.5"/>
<feColorMatrix type="matrix" values="0 0 0 0 0 0 0 0 0 0 0 0 0 0 0 0 0 0 0.2 0"/>
<feBlend mode="normal" in2="BackgroundImageFix" result="effect1_dropShadow_10438_7843"/>
<feBlend mode="normal" in="SourceGraphic" in2="effect1_dropShadow_10438_7843" result="shape"/>
</filter>
</defs>
</svg>
